<?xml version="1.0" encoding="UTF-8"?>
<svg xmlns="http://www.w3.org/2000/svg" xmlns:xlink="http://www.w3.org/1999/xlink" width="200px" height="200px" viewBox="0 0 200 200" version="1.1">
<g id="surface1">
<path style=" stroke:none;fill-rule:nonzero;fill:rgb(30.588236%,47.058824%,58.823532%);fill-opacity:1;" d="M 72.636719 154.625 C 72.636719 154.625 64.949219 159.300781 77.980469 160.636719 C 93.667969 162.636719 102.023438 162.304688 119.386719 158.96875 C 122.878906 161.105469 126.566406 162.894531 130.40625 164.3125 C 91.34375 181.011719 41.90625 163.3125 72.632812 154.625 Z M 67.636719 132.917969 C 67.636719 132.917969 59.289062 139.261719 72.3125 140.605469 C 89.34375 142.273438 102.699219 142.605469 125.75 137.9375 C 127.992188 140.210938 130.734375 141.925781 133.761719 142.945312 C 86.675781 156.96875 33.914062 144.28125 67.636719 132.925781 Z M 159.804688 170.980469 C 159.804688 170.980469 165.480469 175.65625 153.460938 179.332031 C 131.085938 186.019531 59.625 188.019531 39.585938 179.332031 C 32.574219 176.332031 45.929688 171.988281 50.210938 171.320312 C 54.554688 170.320312 56.898438 170.320312 56.898438 170.320312 C 49.210938 164.976562 5.804688 181.335938 34.863281 186.007812 C 114.675781 199.03125 180.460938 180.332031 159.757812 170.980469 Z M 76.25 110.207031 C 76.25 110.207031 39.851562 118.894531 63.226562 121.894531 C 73.242188 123.230469 92.945312 122.894531 111.3125 121.5625 C 126.335938 120.226562 141.375 117.5625 141.375 117.5625 C 141.375 117.5625 136.03125 119.898438 132.355469 122.238281 C 95.292969 131.925781 24.15625 127.582031 44.53125 117.5625 C 61.894531 109.210938 76.257812 110.21875 76.257812 110.21875 Z M 141.375 146.605469 C 178.773438 127.230469 161.414062 108.542969 149.386719 110.875 C 146.386719 111.542969 145.042969 112.210938 145.042969 112.210938 C 145.042969 112.210938 146.042969 110.210938 148.382812 109.542969 C 172.09375 101.195312 190.792969 134.585938 140.695312 147.605469 C 140.695312 147.605469 141.023438 147.273438 141.363281 146.605469 Z M 79.9375 199.367188 C 116 201.707031 171.105469 198.03125 172.4375 180.992188 C 172.4375 180.992188 169.769531 187.679688 142.71875 192.679688 C 111.992188 198.355469 73.925781 197.679688 51.550781 194.019531 C 51.550781 194.019531 56.226562 198.019531 79.9375 199.363281 Z M 79.9375 199.367188 "/>
<path style=" stroke:none;fill-rule:nonzero;fill:rgb(96.078432%,50.980395%,9.803922%);fill-opacity:1;" d="M 118.726562 0.0078125 C 118.726562 0.0078125 139.429688 21.042969 99.023438 52.769531 C 66.632812 78.480469 91.679688 93.175781 99.023438 109.875 C 79.988281 92.84375 66.300781 77.8125 75.648438 63.792969 C 89.335938 43.082031 127.074219 33.125 118.726562 0.0078125 Z M 108.101562 95.851562 C 117.789062 106.867188 105.429688 116.886719 105.429688 116.886719 C 105.429688 116.886719 130.144531 104.199219 118.789062 88.5 C 108.4375 73.476562 100.414062 66.125 143.832031 41.082031 C 143.832031 41.082031 75.375 58.113281 108.101562 95.851562 Z M 108.101562 95.851562 "/>
</g>
</svg>
