<?xml version="1.0" encoding="UTF-8"?>
<svg xmlns="http://www.w3.org/2000/svg" xmlns:xlink="http://www.w3.org/1999/xlink" width="200px" height="200px" viewBox="0 0 200 200" version="1.1">
<g id="surface1">
<path style=" stroke:none;fill-rule:nonzero;fill:rgb(40.784314%,74.117649%,27.058825%);fill-opacity:1;" d="M 181.875 10.515625 C 179.074219 17.230469 175.488281 23.59375 171.191406 29.464844 C 145.664062 3.832031 108.304688 -6.070312 73.433594 3.558594 C 38.558594 13.1875 11.574219 40.851562 2.816406 75.953125 C -5.945312 111.054688 4.878906 148.152344 31.140625 173.039062 L 34.847656 176.308594 C 63.6875 200.609375 103.722656 206.667969 138.460938 191.992188 C 173.199219 177.316406 196.761719 144.386719 199.441406 106.769531 C 202.175781 81.238281 194.679688 48.925781 181.878906 10.519531 Z M 45.40625 173.617188 C 42.425781 177.300781 37.023438 177.871094 33.34375 174.886719 C 29.664062 171.90625 29.097656 166.503906 32.078125 162.824219 C 35.0625 159.144531 40.464844 158.582031 44.144531 161.566406 C 47.816406 164.546875 48.382812 169.941406 45.40625 173.617188 Z M 181.460938 143.585938 C 156.710938 176.554688 103.867188 165.429688 69.988281 167.03125 C 69.988281 167.03125 63.980469 167.382812 57.933594 168.375 C 57.933594 168.375 60.214844 167.40625 63.132812 166.304688 C 86.925781 158.023438 98.171875 156.429688 112.625 148.992188 C 139.835938 135.15625 166.757812 104.859375 172.351562 73.367188 C 161.996094 103.664062 130.558594 129.714844 101.945312 140.296875 C 82.332031 147.523438 46.898438 154.566406 46.898438 154.566406 L 45.472656 153.800781 C 21.367188 142.082031 20.621094 89.871094 64.460938 73.035156 C 83.660156 65.640625 102.023438 69.699219 122.757812 64.753906 C 144.894531 59.492188 170.507812 42.910156 180.929688 21.265625 C 192.585938 55.890625 206.628906 110.085938 181.445312 143.609375 Z M 181.460938 143.585938 "/>
</g>
</svg>
