<?xml version="1.0" encoding="UTF-8"?>
<svg xmlns="http://www.w3.org/2000/svg" xmlns:xlink="http://www.w3.org/1999/xlink" width="200px" height="200px" viewBox="0 0 200 200" version="1.1">
<g id="surface1">
<path style=" stroke:none;fill-rule:nonzero;fill:rgb(0%,73.725492%,94.901961%);fill-opacity:1;" d="M 88.128906 199.871094 C 69.40625 198.523438 50.902344 193.808594 39.554688 187.5 C 33.089844 183.910156 28.167969 179.492188 26.234375 175.558594 L 25.085938 173.214844 L 25.085938 26.3125 L 25.996094 24.464844 C 30.0625 16.210938 43.035156 8.769531 61.148438 4.304688 C 67.296875 2.789062 76.171875 1.277344 83.414062 0.519531 C 90.808594 -0.257812 110.40625 -0.140625 117.785156 0.726562 C 137.386719 3.03125 154.066406 8.1875 164.347656 15.121094 C 168.3125 17.792969 172.378906 22.074219 173.757812 25.019531 L 174.941406 27.542969 L 174.738281 174.003906 L 173.789062 175.929688 C 173.269531 176.988281 171.691406 179.074219 170.289062 180.5625 C 161.742188 189.625 143.40625 196.328125 119.355469 199.183594 C 114.453125 199.765625 93.15625 200.234375 88.128906 199.875 Z M 122.628906 136.933594 C 122.554688 136.746094 119.757812 134.253906 116.410156 131.394531 C 113.058594 128.535156 110.175781 126.058594 110 125.894531 C 109.824219 125.730469 110.441406 125.148438 111.375 124.601562 C 112.308594 124.054688 114.09375 122.535156 115.34375 121.222656 C 119.003906 117.386719 120.730469 112.648438 120.730469 106.441406 C 120.730469 100.332031 118.867188 95.398438 115.140625 91.636719 C 111.378906 87.84375 107.066406 86.210938 100.78125 86.210938 C 91.097656 86.210938 83.65625 91.863281 81.28125 101.027344 C 80.464844 104.179688 80.46875 110.546875 81.292969 113.34375 C 83.433594 120.632812 89.265625 125.925781 96.523438 127.167969 C 98.976562 127.589844 99.3125 127.769531 100.984375 129.601562 C 101.980469 130.691406 104.023438 132.859375 105.523438 134.425781 L 108.25 137.273438 L 115.503906 137.273438 C 119.496094 137.273438 122.699219 137.121094 122.628906 136.933594 Z M 97.753906 116.625 C 96.007812 115.714844 95.34375 115.007812 94.351562 112.984375 C 93.582031 111.417969 93.449219 110.53125 93.441406 106.835938 C 93.433594 103.078125 93.550781 102.265625 94.355469 100.636719 C 95.667969 97.96875 97.480469 96.707031 100.28125 96.503906 C 104.179688 96.21875 106.429688 98.132812 107.609375 102.730469 C 109.054688 108.371094 107.464844 114.363281 103.996094 116.351562 C 102.175781 117.394531 99.460938 117.515625 97.753906 116.625 Z M 65.601562 127.089844 C 73.207031 125.648438 77.523438 121.222656 77.523438 114.875 C 77.523438 109.242188 74.734375 105.960938 67.03125 102.519531 C 62.621094 100.554688 61.023438 99.316406 61.023438 97.875 C 61.023438 96.675781 62.542969 95.367188 64.304688 95.035156 C 66.027344 94.714844 70.597656 95.507812 73.296875 96.597656 L 75.558594 97.511719 L 75.558594 87.496094 L 73.105469 86.953125 C 71.585938 86.617188 68.398438 86.414062 64.757812 86.425781 C 59.597656 86.425781 58.589844 86.550781 56.648438 87.320312 C 50.976562 89.574219 48.289062 93.40625 48.332031 99.175781 C 48.371094 104.574219 51.21875 107.941406 58.308594 110.972656 C 62.492188 112.761719 64.167969 114.121094 64.167969 115.730469 C 64.167969 119.148438 58.472656 119.570312 52.441406 116.597656 C 50.789062 115.78125 49.304688 115.050781 49.144531 114.96875 C 48.980469 114.886719 48.847656 117.226562 48.847656 120.164062 C 48.847656 125.488281 48.855469 125.511719 49.816406 125.878906 C 53.445312 127.257812 61.464844 127.875 65.601562 127.089844 Z M 152.546875 122.152344 L 152.546875 117.636719 L 138.796875 117.636719 L 138.796875 86.605469 L 126.621094 86.605469 L 126.621094 126.667969 L 152.546875 126.667969 Z M 110.125 42.996094 C 122.222656 42.15625 131.292969 40.570312 139.273438 37.902344 C 147.222656 35.246094 151.917969 32.027344 152.96875 28.523438 C 153.375 27.171875 153.34375 26.660156 152.78125 25.175781 C 150.242188 18.535156 136.074219 13.433594 114.421875 11.363281 C 105.160156 10.480469 88.316406 10.765625 79.488281 11.960938 C 66.011719 13.78125 55.078125 17.160156 50.214844 21.011719 C 40.378906 28.800781 50.78125 37.367188 74.96875 41.398438 C 85.457031 43.148438 99.046875 43.765625 110.125 42.996094 Z M 110.125 42.996094 "/>
</g>
</svg>
